<svg width="16" height="16" viewBox="0 0 4.233 4.233" xmlns="http://www.w3.org/2000/svg"><path style="fill:#50a1ff;fill-opacity:1;stroke:none;stroke-width:.202407;stroke-opacity:1" d="M4.233 2.117a2.117 2.117 0 0 1-2.116 2.116A2.117 2.117 0 0 1 0 2.117 2.117 2.117 0 0 1 2.117 0a2.117 2.117 0 0 1 2.116 2.117H2.117z"/><path fill-rule="evenodd" d="M2.054 1.521a.089.089 0 0 1 .125 0l1.063 1.063a.089.089 0 0 1-.125.125l-1-1-1 1a.089.089 0 0 1-.126-.125Z" style="fill:#fff;fill-opacity:1;stroke:#fff;stroke-width:.512104;stroke-dasharray:none;stroke-opacity:1"/></svg>